#!OML:ASF F:\VICON\USERDATA\Patient Classification 1\PLAYGROUND\JustinFriday\JustinFriday.ASF
:FULLY-SPECIFIED
:DEGREES
3556
root 32.8008 27.8321 -9.93075 -323.93 -75.2498 -13.1298
lowerback 38.8433 0.784839 2.62133
upperback 11.296 0.8727 1.88162
thorax -6.3715 -0.0986689 0.354279
lowerneck 15.8588 -10.8488 -9.75736
upperneck -36.2104 -13.233 21.4065
head -12.0554 -8.49963 12.1767
rclavicle 2.06736e-014 -2.17669e-014
rhumerus 11.5494 2.79358 -51.5113
rradius 105.434
rwrist 1.98475
rhand -19.7182 -22.707
rfingers 7.12502
rthumb 6.61188 -52.5838
lclavicle 2.06736e-014 -2.17669e-014
lhumerus 36.7398 -17.9441 63.9113
lradius 93.8867
lwrist -28.1851
lhand -1.29864 -8.74929
lfingers 7.12502
lthumb 24.3459 19.7244
rfemur -26.2854 -5.72876 33.5295
rtibia 23.5096
rfoot -11.1897 -9.67444
rtoes 23.6544
lfemur -78.2739 9.69374 -20.7222
ltibia 92.9333
lfoot -32.4973 -17.6262
ltoes 14.4296
3557
root 32.7094 27.8701 -9.90476 -324.447 -75.4054 -12.4396
lowerback 38.9365 0.7178 2.43869
upperback 11.2695 0.733504 1.92384
thorax -6.43756 -0.167615 0.546524
lowerneck 15.4016 -10.5208 -13.6707
upperneck -34.7131 -12.9624 24.3731
head -10.6797 -8.37609 13.5889
rclavicle 3.20043e-014 2.33572e-015
rhumerus 10.9781 3.49347 -51.5901
rradius 105.779
rwrist 2.6113
rhand -20.4591 -21.8922
rfingers 7.12502
rthumb 5.89658 -51.7901
lclavicle 3.20043e-014 2.33572e-015
lhumerus 35.5079 -17.9828 64.1841
lradius 94.7763
lwrist -28.4085
lhand -1.35006 -8.66729
lfingers 7.12502
lthumb 24.2966 19.813
rfemur -26.105 -5.34191 33.1141
rtibia 23.5007
rfoot -10.6534 -10.2147
rtoes 22.8927
lfemur -77.4463 9.34215 -20.7203
ltibia 92.4723
lfoot -33.4597 -17.2809
ltoes 13.4495
3558
root 32.6119 27.9548 -9.88466 -325.483 -75.7639 -11.1245
lowerback 38.9861 0.746744 2.07206
upperback 11.2192 0.632294 1.80161
thorax -6.51689 -0.212935 0.645694
lowerneck 15.4162 -10.8244 -11.2903
upperneck -35.2374 -13.2633 22.5316
head -11.2728 -8.51701 12.5993
rclavicle -1.76918e-014 1.90336e-014
rhumerus 10.0698 4.04221 -51.8698
rradius 106.197
rwrist 3.31877
rhand -21.3263 -21.2187
rfingers 7.12502
rthumb 5.05925 -51.1383
lclavicle -1.76918e-014 1.90336e-014
lhumerus 34.403 -18.203 64.1774
lradius 95.7023
lwrist -28.8603
lhand -1.67314 -8.4561
lfingers 7.12502
lthumb 23.9869 20.0653
rfemur -25.5605 -4.76629 32.3813
rtibia 22.5952
rfoot -9.82644 -10.6811
rtoes 23.1473
lfemur -76.3512 8.19677 -20.4249
ltibia 91.6466
lfoot -33.9465 -16.5269
ltoes 12.9167
3559
root 32.5133 27.9372 -9.84156 -327.354 -75.596 -9.21733
lowerback 39.4219 0.400249 2.27457
upperback 11.1144 0.292407 1.63311
thorax -6.76533 -0.363464 0.494797
lowerneck 15.4681 -10.7449 -12.8787
upperneck -34.5982 -13.1988 23.9037
head -10.7266 -8.51504 13.2607
rclavicle -3.75703e-014 8.44835e-016
rhumerus 9.15714 4.52109 -52.1872
rradius 106.442
rwrist 3.80942
rhand -22.3015 -20.5126
rfingers 7.12502
rthumb 4.11762 -50.4526
lclavicle -3.75703e-014 8.44835e-016
lhumerus 33.3232 -18.5797 64.1008
lradius 96.5575
lwrist -29.312
lhand -2.06431 -7.95506
lfingers 7.12502
lthumb 23.6117 20.6152
rfemur -24.7427 -4.63913 31.7324
rtibia 21.5778
rfoot -9.39044 -11.1282
rtoes 24.0763
lfemur -76.3704 10.7536 -22.4062
ltibia 91.3385
lfoot -33.5608 -19.5028
ltoes 13.1368
3560
root 32.3997 28.0304 -9.78897 -331.165 -74.6188 -6.06184
lowerback 40.5574 -0.220858 2.95915
upperback 11.2808 -0.189931 1.78479
thorax -6.92254 -0.600857 0.499859
lowerneck 15.4469 -11.0888 -10.224
upperneck -35.6796 -13.6079 21.6969
head -11.5881 -8.68181 12.2041
rclavicle 5.14852e-014 3.89618e-014
rhumerus 8.54848 4.53399 -52.0205
rradius 106.615
rwrist 4.11923
rhand -23.3353 -19.6748
rfingers 7.12502
rthumb 3.11926 -49.6318
lclavicle 5.14852e-014 3.89618e-014
lhumerus 32.8376 -18.9776 64.6885
lradius 96.9529
lwrist -29.9154
lhand -2.6659 -8.05402
lfingers 7.12502
lthumb 23.0346 20.5894
rfemur -23.0389 -5.41471 31.0457
rtibia 20.3949
rfoot -8.78111 -11.7076
rtoes 23.699
lfemur -73.6149 7.06535 -21.1405
ltibia 90.2008
lfoot -34.3456 -16.7993
ltoes 12.1147
3561
root 32.3038 28.1185 -9.75606 -331.385 -74.9232 -5.2739
lowerback 40.2853 -0.0415028 2.84729
upperback 11.262 -0.0126447 1.81479
thorax -6.86137 -0.515056 0.516588
lowerneck 15.5884 -11.1969 -9.843
upperneck -36.2258 -13.848 21.175
head -11.8904 -8.75716 12.0694
rclavicle 1.63003e-014 -1.16289e-014
rhumerus 7.69356 4.67734 -52.0309
rradius 106.95
rwrist 4.29736
rhand -24.4392 -19.5771
rfingers 7.12502
rthumb 2.05317 -49.5469
lclavicle 1.63003e-014 -1.16289e-014
lhumerus 32.2099 -19.3867 65.1878
lradius 97.211
lwrist -30.5464
lhand -3.77302 -8.54432
lfingers 7.12502
lthumb 21.9719 20.2278
rfemur -23.0235 -5.17293 30.5876
rtibia 19.6551
rfoot -7.52364 -11.7762
rtoes 22.7839
lfemur -72.6809 4.84887 -20.296
ltibia 89.251
lfoot -35.1131 -14.2822
ltoes 11.1661
3562
root 32.2118 28.1687 -9.72401 -330.779 -75.367 -5.02233
lowerback 39.5721 0.0529262 2.47646
upperback 11.2032 -0.0286834 1.87108
thorax -6.71243 -0.515717 0.76592
lowerneck 15.6606 -11.2274 -10.8673
upperneck -36.0718 -13.9476 22.0117
head -11.6097 -8.82325 12.5185
rclavicle -8.74653e-015 -1.799e-014
rhumerus 7.19761 5.46921 -52.2529
rradius 107.258
rwrist 4.42309
rhand -25.1895 -19.5675
rfingers 7.12502
rthumb 1.32855 -49.5431
lclavicle -8.74653e-015 -1.799e-014
lhumerus 30.9852 -19.3535 65.5847
lradius 97.6875
lwrist -31.2787
lhand -4.9285 -8.54628
lfingers 7.12502
lthumb 20.8621 20.352
rfemur -23.0822 -4.64643 30.1816
rtibia 18.3645
rfoot -6.21504 -11.9004
rtoes 23.0042
lfemur -72.623 3.78886 -19.9473
ltibia 88.5279
lfoot -35.8112 -12.5925
ltoes 8.84873
3563
root 32.1248 28.1965 -9.70586 -329.126 -75.8416 -5.90751
lowerback 38.8809 0.214537 1.99035
upperback 11.2072 -0.00327477 2.03169
thorax -6.49778 -0.506657 1.17062
lowerneck 15.5793 -11.0443 -12.7592
upperneck -35.5237 -13.8004 23.423
head -11.0341 -8.76213 13.2281
rclavicle 1.78906e-014 3.98066e-014
rhumerus 6.91393 6.30999 -52.5997
rradius 107.487
rwrist 4.62099
rhand -25.5433 -18.7674
rfingers 7.12502
rthumb 0.986886 -48.7449
lclavicle 1.78906e-014 3.98066e-014
lhumerus 29.5872 -19.1097 66.1092
lradius 98.2412
lwrist -31.8946
lhand -5.52206 -8.50688
lfingers 7.12502
lthumb 20.2917 20.4531
rfemur -23.5793 -3.97815 30.1032
rtibia 18.1639
rfoot -5.62592 -11.9619
rtoes 23.941
lfemur -73.0066 5.45137 -20.4849
ltibia 88.1185
lfoot -36.0799 -13.888
ltoes 8.12414
3564
root 32.0302 28.2499 -9.6807 -327.654 -76.045 -6.68888
lowerback 38.3177 0.168971 2.01241
upperback 11.1957 -0.0596155 1.92842
thorax -6.32702 -0.521402 1.06474
lowerneck 15.5266 -10.9113 -13.7227
upperneck -35.1758 -13.544 24.5607
head -10.7089 -8.71276 13.7544
rclavicle 3.8763e-014 3.20043e-014
rhumerus 6.49962 6.71421 -53.2994
rradius 107.498
rwrist 4.79959
rhand -26.0854 -17.9941
rfingers 7.12502
rthumb 0.463242 -47.9733
lclavicle 3.8763e-014 3.20043e-014
lhumerus 28.4055 -19.1431 66.3367
lradius 98.751
lwrist -32.287
lhand -5.83218 -8.72496
lfingers 7.12502
lthumb 19.9937 20.2664
rfemur -24.1474 -3.76143 30.1495
rtibia 18.2694
rfoot -5.05476 -11.9026
rtoes 24.7531
lfemur -72.8322 4.95492 -19.9537
ltibia 87.5306
lfoot -36.4235 -13.7134
ltoes 8.24202
3565
root 31.9383 28.2485 -9.64279 -327.09 -76.0491 -6.61209
lowerback 37.9476 -0.0540936 2.14649
upperback 11.1405 -0.291337 1.70985
thorax -6.26334 -0.612217 0.845868
lowerneck 15.4973 -11.1071 -10.8764
upperneck -35.8781 -13.5786 22.6528
head -11.5021 -8.77112 12.7196
rclavicle 9.59136e-015 -1.56046e-014
rhumerus 6.14468 7.13561 -54.2744
rradius 107.252
rwrist 5.08552
rhand -27.0164 -17.4071
rfingers 7.12502
rthumb -0.435952 -47.3864
lclavicle 9.59136e-015 -1.56046e-014
lhumerus 27.3145 -19.1816 66.1444
lradius 99.2648
lwrist -32.5124
lhand -6.19755 -8.96186
lfingers 7.12502
lthumb 19.6424 20.0658
rfemur -24.6777 -3.73306 30.0336
rtibia 18.4224
rfoot -4.38056 -11.8492
rtoes 25.3338
lfemur -73.4006 7.79698 -21.5991
ltibia 87.191
lfoot -36.3095 -16.6783
ltoes 8.86818
3566
root 31.84 28.3177 -9.60803 -327.274 -76.3558 -5.91768
lowerback 37.7924 0.00682814 1.99342
upperback 11.072 -0.258328 1.75753
thorax -6.28967 -0.595254 0.962384
lowerneck 15.3397 -11.2769 -10.3185
upperneck -36.1086 -13.8265 22.151
head -11.6261 -8.88207 12.4653
rclavicle 2.88238e-015 1.10325e-014
rhumerus 5.50789 7.38176 -54.3035
rradius 107.128
rwrist 5.7344
rhand -28.0636 -16.8352
rfingers 7.12502
rthumb -1.44735 -46.81
lclavicle 2.88238e-015 1.10325e-014
lhumerus 26.2555 -19.4452 66.5634
lradius 99.66
lwrist -32.8144
lhand -6.52533 -9.40679
lfingers 7.12502
lthumb 19.3273 19.6528
rfemur -24.9208 -3.66034 29.5799
rtibia 18.3333
rfoot -3.4863 -11.7244
rtoes 25.5867
lfemur -72.8141 7.5203 -21.7213
ltibia 86.3634
lfoot -36.6519 -16.5092
ltoes 8.73543
3567
root 31.7362 28.3905 -9.57101 -328.936 -76.7495 -3.86456
lowerback 37.7872 0.12939 1.72887
upperback 11.031 -0.197309 1.74235
thorax -6.33694 -0.566126 1.06172
lowerneck 15.3011 -11.4631 -11.1166
upperneck -36.0827 -14.107 22.8928
head -11.3657 -9.04622 12.8501
rclavicle 2.3059e-014 2.39039e-014
rhumerus 4.60141 7.49085 -54.1423
rradius 107.088
rwrist 6.95161
rhand -29.1359 -16.6128
rfingers 7.12502
rthumb -2.483 -46.5781
lclavicle 2.3059e-014 2.39039e-014
lhumerus 25.2835 -20.0091 67.3765
lradius 99.8341
lwrist -33.4537
lhand -6.87942 -9.79902
lfingers 7.12502
lthumb 18.9868 19.2943
rfemur -24.945 -3.94999 28.8464
rtibia 18.0477
rfoot -2.21235 -11.4971
rtoes 24.0049
lfemur -72.0227 7.39929 -22.379
ltibia 85.4598
lfoot -37.3357 -15.724
ltoes 7.05256
3568
root 31.6285 28.4545 -9.53496 -330.337 -77.1342 -1.85398
lowerback 37.4041 0.253602 1.42524
upperback 11.069 -0.18455 1.38306
thorax -6.17043 -0.546234 0.830815
lowerneck 15.143 -11.6636 -10.2885
upperneck -36.2129 -14.1173 22.9853
head -11.4608 -9.17544 12.7726
rclavicle -1.59028e-015 -3.66261e-014
rhumerus 3.64363 7.55283 -55.2692
rradius 106.843
rwrist 8.57645
rhand -30.4174 -16.2493
rfingers 7.12502
rthumb -3.72054 -46.1966
lclavicle -1.59028e-015 -3.66261e-014
lhumerus 24.6101 -20.5418 67.324
lradius 99.9601
lwrist -33.892
lhand -7.56921 -10.4079
lfingers 7.12502
lthumb 18.3233 18.7491
rfemur -24.9572 -4.20296 28.164
rtibia 17.2406
rfoot -0.776059 -11.2765
rtoes 23.0232
lfemur -71.5053 7.33466 -23.0914
ltibia 84.5148
lfoot -38.2683 -14.3173
ltoes 3.89082
3569
root 31.5236 28.5284 -9.4988 -329.605 -77.3899 -1.92494
lowerback 36.8666 0.199388 1.23134
upperback 10.9776 -0.308089 1.30142
thorax -6.09074 -0.593802 0.886072
lowerneck 15.1995 -11.5433 -9.96735
upperneck -36.272 -13.8825 22.8918
head -11.5969 -9.09105 12.7166
rclavicle -2.10712e-014 -6.59717e-014
rhumerus 2.89314 8.18617 -55.9403
rradius 106.711
rwrist 9.50895
rhand -31.7581 -15.4889
rfingers 7.12502
rthumb -5.01521 -45.4096
lclavicle -2.10712e-014 -6.59717e-014
lhumerus 23.3309 -20.4436 67.3357
lradius 100.12
lwrist -34.0864
lhand -8.40706 -11.3004
lfingers 7.12502
lthumb 17.5171 17.9304
rfemur -25.096 -4.33854 27.9951
rtibia 16.5268
rfoot 0.311956 -10.9337
rtoes 23.7055
lfemur -70.7041 4.68363 -21.7858
ltibia 83.5159
lfoot -39.3662 -10.342
ltoes 0.4204
3570
root 31.4244 28.5796 -9.46207 -328.571 -77.5115 -2.409
lowerback 36.4421 0.110489 1.43557
upperback 10.9497 -0.340697 1.30059
thorax -5.97432 -0.60072 0.785731
lowerneck 15.0274 -11.6135 -9.87947
upperneck -36.3629 -13.9579 22.9139
head -11.587 -9.14912 12.707
rclavicle 4.01545e-014 2.83517e-014
rhumerus 2.19569 8.46303 -56.1194
rradius 106.62
rwrist 9.93724
rhand -32.4993 -14.7428
rfingers 7.12502
rthumb -5.73085 -44.6453
lclavicle 4.01545e-014 2.83517e-014
lhumerus 22.3161 -20.7269 67.5444
lradius 100.213
lwrist -34.314
lhand -9.07989 -11.6822
lfingers 7.12502
lthumb 16.8695 17.605
rfemur -25.1404 -4.59519 27.9744
rtibia 15.8106
rfoot 1.6594 -10.4399
rtoes 22.778
lfemur -70.3083 4.5954 -21.7772
ltibia 82.6362
lfoot -40.1994 -8.1195
ltoes -3.72457
